<?xml version="1.0" standalone="no"?>
<!DOCTYPE svg PUBLIC "-//W3C//DTD SVG 20010904//EN"
 "http://www.w3.org/TR/2001/REC-SVG-20010904/DTD/svg10.dtd">
<svg version="1.0" xmlns="http://www.w3.org/2000/svg"
 width="260.000000pt" height="260.000000pt" viewBox="0 0 260.000000 260.000000"
 preserveAspectRatio="xMidYMid meet">
<metadata>
Created by potrace 1.11, written by Peter Selinger 2001-2013
</metadata>
<g transform="translate(0.000000,260.000000) scale(0.100000,-0.100000)"
fill="#000000" stroke="none">
<path d="M0 1300 l0 -1300 1300 0 1300 0 0 1300 0 1300 -1300 0 -1300 0 0
-1300z m1797 1167 c129 -34 267 -205 309 -384 20 -87 20 -258 0 -346 -31 -134
-114 -264 -210 -328 -39 -26 -52 -39 -38 -39 35 0 157 -68 204 -115 56 -55 99
-130 135 -232 23 -68 27 -98 31 -234 5 -192 -7 -272 -58 -376 -65 -135 -172
-230 -309 -275 -60 -20 -91 -22 -363 -26 l-298 -4 -2 379 c-3 415 -2 686 7
1348 l5 440 -26 -60 c-14 -33 -47 -112 -74 -175 -50 -123 -199 -473 -257 -605
-19 -44 -81 -190 -137 -325 -57 -135 -165 -383 -240 -552 l-138 -307 -32 6
c-17 3 -35 9 -40 14 -9 8 38 120 259 629 59 135 143 328 187 430 44 102 118
271 163 375 45 105 106 244 134 310 29 66 86 198 128 293 l76 172 266 0 c189
0 282 -4 318 -13z"/>
<path d="M1300 1905 l0 -496 223 3 c202 3 226 5 268 24 98 46 169 134 215 269
38 111 40 274 6 385 -31 99 -71 167 -130 222 -88 83 -87 83 -349 86 l-233 3 0
-496z"/>
<path d="M1300 761 l0 -571 203 0 c231 0 293 9 392 54 183 85 263 254 252 536
-12 309 -110 461 -338 526 -38 11 -122 17 -281 21 l-228 6 0 -572z"/>
</g>
</svg>
