<?xml version="1.0" standalone="no"?>
<!DOCTYPE svg PUBLIC "-//W3C//DTD SVG 20010904//EN"
 "http://www.w3.org/TR/2001/REC-SVG-20010904/DTD/svg10.dtd">
<svg version="1.0" xmlns="http://www.w3.org/2000/svg"
 width="260.000000pt" height="260.000000pt" viewBox="0 0 260.000000 260.000000"
 preserveAspectRatio="xMidYMid meet">
<metadata>
Created by potrace 1.11, written by Peter Selinger 2001-2013
</metadata>
<g transform="translate(0.000000,260.000000) scale(0.100000,-0.100000)"
fill="#000000" stroke="none">
<path d="M0 1300 l0 -1300 1300 0 1300 0 0 1300 0 1300 -1300 0 -1300 0 0
-1300z m1875 1230 c130 -51 254 -229 291 -420 52 -266 -43 -561 -219 -680
l-66 -44 52 -16 c155 -48 258 -161 320 -350 71 -213 55 -502 -35 -673 -66
-124 -187 -224 -315 -262 -85 -25 -212 -35 -437 -35 l-219 0 6 1068 c4 587 10
1109 14 1160 3 52 2 92 -3 92 -5 0 -76 -163 -158 -363 -201 -488 -428 -1040
-454 -1107 -12 -30 -84 -197 -160 -370 l-138 -315 -29 3 c-17 2 -32 6 -34 8
-4 4 -10 -11 179 439 83 198 202 482 265 630 111 267 238 569 422 1005 52 124
100 233 105 244 9 17 25 18 281 14 256 -4 276 -6 332 -28z"/>
<path d="M1330 1955 l0 -536 243 3 242 3 53 30 c285 157 332 679 85 932 -90
92 -109 97 -385 101 l-238 3 0 -536z"/>
<path d="M1330 734 l0 -616 243 4 c259 5 294 11 401 65 64 33 157 125 189 189
49 96 61 165 62 339 0 252 -45 396 -160 504 -111 105 -216 131 -526 131 l-209
0 0 -616z"/>
</g>
</svg>
